<?xml version="1.0" encoding="UTF-8"?>
<svg id="Layer_1" data-name="Layer 1" xmlns="http://www.w3.org/2000/svg" width="364.72" height="349.07" viewBox="0 0 364.72 349.07">
  <path d="M285.49,347.99l-102.15-76.63c-1.82-1.36-4.3-1.4-6.16-.09l-104.45,73.47c-4.15,2.92-9.62-1.18-7.97-5.98l41.32-120.83c.73-2.15,0-4.53-1.81-5.89L2.11,135.4c-4.06-3.05-1.85-9.51,3.23-9.43l127.69,1.96c2.27.03,4.3-1.4,5.04-3.54L179.37,3.55c1.64-4.8,8.47-4.7,9.97.15l37.6,122.04c.67,2.17,2.66,3.66,4.93,3.7l127.69,1.96c5.08.08,7.09,6.61,2.93,9.53l-104.45,73.47c-1.86,1.31-2.66,3.66-1.99,5.83l37.6,122.04c1.49,4.85-4.09,8.78-8.15,5.74Z" style="fill: #e8bc42;"/>
  <path d="M184.33,3c.39,0,1.69.11,2.14,1.58l37.6,122.04c1.05,3.42,4.17,5.76,7.75,5.81l127.69,1.96c1.51.02,1.99,1.22,2.11,1.58.11.36.38,1.62-.85,2.49l-104.45,73.47c-2.93,2.06-4.19,5.74-3.13,9.17l37.6,122.04c.22.73.12,1.38-.3,1.95-.44.6-1.16.97-1.86.97-.46,0-.91-.16-1.32-.47l-102.15-76.63c-1.44-1.08-3.15-1.65-4.95-1.65-1.71,0-3.35.52-4.74,1.5l-104.45,73.47c-.41.29-.84.43-1.27.43-.72,0-1.44-.38-1.88-1-.29-.41-.57-1.08-.26-1.99l41.32-120.83c1.16-3.39.01-7.11-2.85-9.26L3.91,133c-1.2-.9-.9-2.14-.78-2.5.12-.36.63-1.53,2.16-1.53l127.68,1.96h.13c3.52,0,6.66-2.24,7.8-5.57L182.21,4.52c.47-1.37,1.64-1.52,2.12-1.52M184.33,0c-2.07,0-4.15,1.18-4.96,3.55l-41.32,120.83c-.73,2.12-2.72,3.55-4.96,3.55-.03,0-.05,0-.08,0l-127.69-1.96s-.06,0-.09,0c-5.01,0-7.17,6.4-3.13,9.43l102.15,76.63c1.82,1.36,2.55,3.74,1.81,5.89l-41.32,120.83c-1.26,3.69,1.67,6.96,4.97,6.96,1,0,2.04-.3,3-.98l104.45-73.47c.91-.64,1.96-.95,3.01-.95,1.11,0,2.21.35,3.15,1.05l102.15,76.63c.99.74,2.07,1.07,3.12,1.07,3.24,0,6.16-3.14,5.03-6.81l-37.6-122.04c-.67-2.17.14-4.52,1.99-5.83l104.45-73.47c4.15-2.92,2.14-9.45-2.93-9.53l-127.69-1.96c-2.27-.03-4.26-1.53-4.93-3.7L189.34,3.7C188.58,1.24,186.46,0,184.33,0h0Z"/>
</svg>